<mxfile host="app.diagrams.net" modified="2022-04-27T21:34:52.775Z" agent="5.0 (Windows NT 10.0; Win64; x64) AppleWebKit/537.36 (KHTML, like Gecko) Chrome/100.0.4896.127 Safari/537.36" etag="lJUKOyvt1jZnEgvYdiQm" version="17.4.6" type="github">
  <diagram id="R2lEEEUBdFMjLlhIrx00" name="Page-1">
    <mxGraphModel dx="1422" dy="705" grid="1" gridSize="10" guides="1" tooltips="1" connect="1" arrows="1" fold="1" page="1" pageScale="1" pageWidth="850" pageHeight="1100" math="0" shadow="0" extFonts="Permanent Marker^https://fonts.googleapis.com/css?family=Permanent+Marker">
      <root>
        <mxCell id="0" />
        <mxCell id="1" parent="0" />
        <mxCell id="k0XEJbHkQB0Ncaj2xGKK-1" value="PIEZAS" style="rounded=0;whiteSpace=wrap;html=1;" vertex="1" parent="1">
          <mxGeometry x="30" y="330" width="120" height="60" as="geometry" />
        </mxCell>
        <mxCell id="k0XEJbHkQB0Ncaj2xGKK-2" value="ESTANTERIAS" style="rounded=0;whiteSpace=wrap;html=1;" vertex="1" parent="1">
          <mxGeometry x="340" y="330" width="120" height="60" as="geometry" />
        </mxCell>
        <mxCell id="k0XEJbHkQB0Ncaj2xGKK-3" value="ALMACENES" style="rounded=0;whiteSpace=wrap;html=1;" vertex="1" parent="1">
          <mxGeometry x="700" y="330" width="120" height="60" as="geometry" />
        </mxCell>
        <mxCell id="k0XEJbHkQB0Ncaj2xGKK-4" value="guardar" style="rhombus;whiteSpace=wrap;html=1;" vertex="1" parent="1">
          <mxGeometry x="200" y="320" width="80" height="80" as="geometry" />
        </mxCell>
        <mxCell id="k0XEJbHkQB0Ncaj2xGKK-5" value="tener" style="rhombus;whiteSpace=wrap;html=1;" vertex="1" parent="1">
          <mxGeometry x="530" y="320" width="80" height="80" as="geometry" />
        </mxCell>
        <mxCell id="k0XEJbHkQB0Ncaj2xGKK-7" value="" style="endArrow=none;html=1;rounded=0;exitX=1;exitY=0.5;exitDx=0;exitDy=0;" edge="1" parent="1" source="k0XEJbHkQB0Ncaj2xGKK-1">
          <mxGeometry width="50" height="50" relative="1" as="geometry">
            <mxPoint x="400" y="390" as="sourcePoint" />
            <mxPoint x="200" y="360" as="targetPoint" />
          </mxGeometry>
        </mxCell>
        <mxCell id="k0XEJbHkQB0Ncaj2xGKK-8" value="" style="endArrow=none;html=1;rounded=0;entryX=0;entryY=0.5;entryDx=0;entryDy=0;exitX=1;exitY=0.5;exitDx=0;exitDy=0;" edge="1" parent="1" source="k0XEJbHkQB0Ncaj2xGKK-2" target="k0XEJbHkQB0Ncaj2xGKK-5">
          <mxGeometry width="50" height="50" relative="1" as="geometry">
            <mxPoint x="400" y="390" as="sourcePoint" />
            <mxPoint x="450" y="340" as="targetPoint" />
          </mxGeometry>
        </mxCell>
        <mxCell id="k0XEJbHkQB0Ncaj2xGKK-9" value="" style="endArrow=none;html=1;rounded=0;exitX=1;exitY=0.5;exitDx=0;exitDy=0;entryX=0;entryY=0.5;entryDx=0;entryDy=0;" edge="1" parent="1" source="k0XEJbHkQB0Ncaj2xGKK-4" target="k0XEJbHkQB0Ncaj2xGKK-2">
          <mxGeometry width="50" height="50" relative="1" as="geometry">
            <mxPoint x="400" y="390" as="sourcePoint" />
            <mxPoint x="450" y="340" as="targetPoint" />
          </mxGeometry>
        </mxCell>
        <mxCell id="k0XEJbHkQB0Ncaj2xGKK-10" value="" style="endArrow=none;html=1;rounded=0;entryX=0;entryY=0.5;entryDx=0;entryDy=0;exitX=1;exitY=0.5;exitDx=0;exitDy=0;" edge="1" parent="1" source="k0XEJbHkQB0Ncaj2xGKK-5" target="k0XEJbHkQB0Ncaj2xGKK-3">
          <mxGeometry width="50" height="50" relative="1" as="geometry">
            <mxPoint x="400" y="390" as="sourcePoint" />
            <mxPoint x="450" y="340" as="targetPoint" />
          </mxGeometry>
        </mxCell>
        <mxCell id="k0XEJbHkQB0Ncaj2xGKK-11" value="1,N" style="text;html=1;align=center;verticalAlign=middle;resizable=0;points=[];autosize=1;strokeColor=none;fillColor=none;" vertex="1" parent="1">
          <mxGeometry x="155" y="330" width="30" height="20" as="geometry" />
        </mxCell>
        <mxCell id="k0XEJbHkQB0Ncaj2xGKK-12" value="1,1" style="text;html=1;align=center;verticalAlign=middle;resizable=0;points=[];autosize=1;strokeColor=none;fillColor=none;" vertex="1" parent="1">
          <mxGeometry x="295" y="330" width="30" height="20" as="geometry" />
        </mxCell>
        <mxCell id="k0XEJbHkQB0Ncaj2xGKK-13" value="1,N" style="text;html=1;align=center;verticalAlign=middle;resizable=0;points=[];autosize=1;strokeColor=none;fillColor=none;" vertex="1" parent="1">
          <mxGeometry x="480" y="330" width="30" height="20" as="geometry" />
        </mxCell>
        <mxCell id="k0XEJbHkQB0Ncaj2xGKK-14" value="1,1" style="text;html=1;align=center;verticalAlign=middle;resizable=0;points=[];autosize=1;strokeColor=none;fillColor=none;" vertex="1" parent="1">
          <mxGeometry x="645" y="330" width="30" height="20" as="geometry" />
        </mxCell>
        <mxCell id="k0XEJbHkQB0Ncaj2xGKK-16" value="nombre estnateria" style="ellipse;whiteSpace=wrap;html=1;" vertex="1" parent="1">
          <mxGeometry x="615" y="440" width="90" height="70" as="geometry" />
        </mxCell>
        <mxCell id="k0XEJbHkQB0Ncaj2xGKK-17" value="descripcion" style="ellipse;whiteSpace=wrap;html=1;" vertex="1" parent="1">
          <mxGeometry x="740" y="440" width="90" height="70" as="geometry" />
        </mxCell>
        <mxCell id="k0XEJbHkQB0Ncaj2xGKK-18" value="&lt;u&gt;id almacen&lt;/u&gt;" style="ellipse;whiteSpace=wrap;html=1;" vertex="1" parent="1">
          <mxGeometry x="630" y="205" width="90" height="65" as="geometry" />
        </mxCell>
        <mxCell id="k0XEJbHkQB0Ncaj2xGKK-19" value="direccion" style="ellipse;whiteSpace=wrap;html=1;" vertex="1" parent="1">
          <mxGeometry x="750" y="210" width="80" height="60" as="geometry" />
        </mxCell>
        <mxCell id="k0XEJbHkQB0Ncaj2xGKK-20" value="" style="endArrow=none;html=1;rounded=0;entryX=0.5;entryY=1;entryDx=0;entryDy=0;exitX=0.5;exitY=0;exitDx=0;exitDy=0;" edge="1" parent="1" source="k0XEJbHkQB0Ncaj2xGKK-3" target="k0XEJbHkQB0Ncaj2xGKK-18">
          <mxGeometry width="50" height="50" relative="1" as="geometry">
            <mxPoint x="400" y="390" as="sourcePoint" />
            <mxPoint x="450" y="340" as="targetPoint" />
          </mxGeometry>
        </mxCell>
        <mxCell id="k0XEJbHkQB0Ncaj2xGKK-21" value="" style="endArrow=none;html=1;rounded=0;entryX=0.5;entryY=1;entryDx=0;entryDy=0;exitX=0.5;exitY=0;exitDx=0;exitDy=0;" edge="1" parent="1" source="k0XEJbHkQB0Ncaj2xGKK-3" target="k0XEJbHkQB0Ncaj2xGKK-19">
          <mxGeometry width="50" height="50" relative="1" as="geometry">
            <mxPoint x="770" y="340" as="sourcePoint" />
            <mxPoint x="685" y="280" as="targetPoint" />
          </mxGeometry>
        </mxCell>
        <mxCell id="k0XEJbHkQB0Ncaj2xGKK-22" value="" style="endArrow=none;html=1;rounded=0;entryX=0.5;entryY=0;entryDx=0;entryDy=0;exitX=0.5;exitY=1;exitDx=0;exitDy=0;" edge="1" parent="1" source="k0XEJbHkQB0Ncaj2xGKK-3" target="k0XEJbHkQB0Ncaj2xGKK-16">
          <mxGeometry width="50" height="50" relative="1" as="geometry">
            <mxPoint x="780" y="350" as="sourcePoint" />
            <mxPoint x="695" y="290" as="targetPoint" />
          </mxGeometry>
        </mxCell>
        <mxCell id="k0XEJbHkQB0Ncaj2xGKK-23" value="" style="endArrow=none;html=1;rounded=0;entryX=0.5;entryY=0;entryDx=0;entryDy=0;exitX=0.5;exitY=1;exitDx=0;exitDy=0;" edge="1" parent="1" source="k0XEJbHkQB0Ncaj2xGKK-3" target="k0XEJbHkQB0Ncaj2xGKK-17">
          <mxGeometry width="50" height="50" relative="1" as="geometry">
            <mxPoint x="790" y="360" as="sourcePoint" />
            <mxPoint x="705" y="300" as="targetPoint" />
          </mxGeometry>
        </mxCell>
        <mxCell id="k0XEJbHkQB0Ncaj2xGKK-24" value="&lt;u&gt;id estanteria&lt;/u&gt;" style="ellipse;whiteSpace=wrap;html=1;" vertex="1" parent="1">
          <mxGeometry x="340" y="450" width="90" height="70" as="geometry" />
        </mxCell>
        <mxCell id="k0XEJbHkQB0Ncaj2xGKK-25" value="" style="endArrow=none;html=1;rounded=0;entryX=0.5;entryY=0;entryDx=0;entryDy=0;exitX=0.5;exitY=1;exitDx=0;exitDy=0;" edge="1" parent="1" source="k0XEJbHkQB0Ncaj2xGKK-2" target="k0XEJbHkQB0Ncaj2xGKK-24">
          <mxGeometry width="50" height="50" relative="1" as="geometry">
            <mxPoint x="500" y="440" as="sourcePoint" />
            <mxPoint x="400" y="490" as="targetPoint" />
          </mxGeometry>
        </mxCell>
        <mxCell id="k0XEJbHkQB0Ncaj2xGKK-27" value="tipo" style="ellipse;whiteSpace=wrap;html=1;" vertex="1" parent="1">
          <mxGeometry x="150" y="470" width="90" height="60" as="geometry" />
        </mxCell>
        <mxCell id="k0XEJbHkQB0Ncaj2xGKK-28" value="&lt;u&gt;idpeiza&lt;/u&gt;" style="ellipse;whiteSpace=wrap;html=1;" vertex="1" parent="1">
          <mxGeometry x="10" y="470" width="90" height="60" as="geometry" />
        </mxCell>
        <mxCell id="k0XEJbHkQB0Ncaj2xGKK-29" value="precio" style="ellipse;whiteSpace=wrap;html=1;" vertex="1" parent="1">
          <mxGeometry x="180" y="230" width="90" height="60" as="geometry" />
        </mxCell>
        <mxCell id="k0XEJbHkQB0Ncaj2xGKK-30" value="descripcion" style="ellipse;whiteSpace=wrap;html=1;" vertex="1" parent="1">
          <mxGeometry x="125" y="170" width="90" height="60" as="geometry" />
        </mxCell>
        <mxCell id="k0XEJbHkQB0Ncaj2xGKK-31" value="" style="endArrow=none;html=1;rounded=0;entryX=0;entryY=0.5;entryDx=0;entryDy=0;exitX=0;exitY=0.5;exitDx=0;exitDy=0;" edge="1" parent="1" source="k0XEJbHkQB0Ncaj2xGKK-32" target="k0XEJbHkQB0Ncaj2xGKK-1">
          <mxGeometry width="50" height="50" relative="1" as="geometry">
            <mxPoint x="10" y="255" as="sourcePoint" />
            <mxPoint x="50" y="330" as="targetPoint" />
            <Array as="points">
              <mxPoint x="10" y="245" />
              <mxPoint x="10" y="360" />
            </Array>
          </mxGeometry>
        </mxCell>
        <mxCell id="k0XEJbHkQB0Ncaj2xGKK-32" value="relacion" style="rounded=0;whiteSpace=wrap;html=1;" vertex="1" parent="1">
          <mxGeometry x="35" y="220" width="90" height="50" as="geometry" />
        </mxCell>
        <mxCell id="k0XEJbHkQB0Ncaj2xGKK-33" value="" style="endArrow=none;html=1;rounded=0;exitX=0.5;exitY=0;exitDx=0;exitDy=0;entryX=0.3;entryY=1;entryDx=0;entryDy=0;entryPerimeter=0;" edge="1" parent="1" source="k0XEJbHkQB0Ncaj2xGKK-1" target="k0XEJbHkQB0Ncaj2xGKK-30">
          <mxGeometry width="50" height="50" relative="1" as="geometry">
            <mxPoint x="400" y="390" as="sourcePoint" />
            <mxPoint x="450" y="340" as="targetPoint" />
          </mxGeometry>
        </mxCell>
        <mxCell id="k0XEJbHkQB0Ncaj2xGKK-35" value="" style="endArrow=none;html=1;rounded=0;exitX=0.75;exitY=0;exitDx=0;exitDy=0;" edge="1" parent="1" source="k0XEJbHkQB0Ncaj2xGKK-1" target="k0XEJbHkQB0Ncaj2xGKK-29">
          <mxGeometry width="50" height="50" relative="1" as="geometry">
            <mxPoint x="400" y="390" as="sourcePoint" />
            <mxPoint x="450" y="340" as="targetPoint" />
          </mxGeometry>
        </mxCell>
        <mxCell id="k0XEJbHkQB0Ncaj2xGKK-36" value="" style="endArrow=none;html=1;rounded=0;exitX=0.25;exitY=1;exitDx=0;exitDy=0;entryX=0.5;entryY=0;entryDx=0;entryDy=0;" edge="1" parent="1" source="k0XEJbHkQB0Ncaj2xGKK-1" target="k0XEJbHkQB0Ncaj2xGKK-28">
          <mxGeometry width="50" height="50" relative="1" as="geometry">
            <mxPoint x="400" y="390" as="sourcePoint" />
            <mxPoint x="450" y="340" as="targetPoint" />
          </mxGeometry>
        </mxCell>
        <mxCell id="k0XEJbHkQB0Ncaj2xGKK-39" value="" style="endArrow=none;html=1;rounded=0;entryX=0.222;entryY=0;entryDx=0;entryDy=0;entryPerimeter=0;" edge="1" parent="1" source="k0XEJbHkQB0Ncaj2xGKK-1" target="k0XEJbHkQB0Ncaj2xGKK-27">
          <mxGeometry width="50" height="50" relative="1" as="geometry">
            <mxPoint x="70" y="400" as="sourcePoint" />
            <mxPoint x="65" y="480" as="targetPoint" />
          </mxGeometry>
        </mxCell>
        <mxCell id="k0XEJbHkQB0Ncaj2xGKK-40" value="" style="endArrow=none;html=1;rounded=0;entryX=0.644;entryY=1.02;entryDx=0;entryDy=0;entryPerimeter=0;exitX=0.408;exitY=0.033;exitDx=0;exitDy=0;exitPerimeter=0;" edge="1" parent="1" source="k0XEJbHkQB0Ncaj2xGKK-1" target="k0XEJbHkQB0Ncaj2xGKK-32">
          <mxGeometry width="50" height="50" relative="1" as="geometry">
            <mxPoint x="400" y="390" as="sourcePoint" />
            <mxPoint x="450" y="340" as="targetPoint" />
          </mxGeometry>
        </mxCell>
        <mxCell id="k0XEJbHkQB0Ncaj2xGKK-41" value="0,N" style="text;html=1;align=center;verticalAlign=middle;resizable=0;points=[];autosize=1;strokeColor=none;fillColor=none;" vertex="1" parent="1">
          <mxGeometry x="15" y="300" width="30" height="20" as="geometry" />
        </mxCell>
      </root>
    </mxGraphModel>
  </diagram>
</mxfile>
